<?xml version="1.0" standalone="no"?>
<!DOCTYPE svg PUBLIC "-//W3C//DTD SVG 20010904//EN"
 "http://www.w3.org/TR/2001/REC-SVG-20010904/DTD/svg10.dtd">
<svg version="1.0" xmlns="http://www.w3.org/2000/svg"
 width="512.000000pt" height="512.000000pt" viewBox="0 0 512.000000 512.000000"
 preserveAspectRatio="xMidYMid meet">
<metadata>
Created by potrace 1.14, written by Peter Selinger 2001-2017
</metadata>
<g transform="translate(0.000000,512.000000) scale(0.100000,-0.100000)"
fill="#000000" stroke="none">
<path d="M0 2560 l0 -2560 2560 0 2560 0 0 2560 0 2560 -2560 0 -2560 0 0
-2560z m772 533 c-11 -16 -29 -47 -41 -71 l-21 -42 47 29 c106 65 269 97 443
88 122 -6 209 -26 298 -69 115 -54 226 -193 239 -296 l6 -52 -77 0 -76 0 0 30
c0 42 -24 96 -48 109 -12 6 -39 11 -62 11 -56 0 -94 -38 -104 -103 l-7 -48
-72 3 -72 3 3 40 c5 61 46 138 90 169 21 14 43 26 50 26 7 0 12 4 12 8 0 34
-281 54 -393 28 -78 -18 -158 -56 -205 -97 -26 -23 -42 -29 -82 -29 l-48 0
-16 -67 c-28 -124 -36 -197 -36 -319 0 -228 62 -465 165 -631 l26 -43 -108 0
-108 0 -41 63 c-58 87 -87 149 -118 247 -105 332 -58 717 119 984 l37 56 110
0 109 0 -19 -27z m3809 -15 c51 -70 117 -218 146 -324 25 -92 27 -113 28 -304
0 -184 -2 -214 -24 -294 -31 -118 -77 -226 -134 -314 l-47 -72 -105 0 c-58 0
-105 3 -105 6 0 4 15 32 34 63 110 184 171 485 147 722 -20 191 -85 403 -156
510 -14 21 -25 41 -25 44 0 3 47 5 105 5 l105 0 31 -42z m-1911 -88 c0 -81 3
-110 13 -110 6 0 26 -7 42 -16 30 -15 30 -15 55 18 103 138 246 203 475 215
189 9 352 -27 464 -104 93 -64 181 -205 181 -290 0 -22 -3 -23 -75 -23 l-75 0
0 30 c0 42 -24 96 -48 109 -12 6 -39 11 -62 11 -56 0 -96 -39 -105 -103 l-7
-47 -75 0 -75 0 7 43 c10 67 52 144 93 172 20 14 42 25 49 25 26 0 12 17 -24
29 -54 18 -266 25 -336 12 -74 -13 -166 -55 -220 -98 -37 -29 -49 -33 -101
-33 l-60 0 26 -27 c88 -95 112 -180 106 -382 -6 -184 -24 -238 -107 -322 -75
-74 -143 -101 -261 -101 -198 -1 -314 92 -345 275 l-6 38 108 -3 107 -3 7 -35
c4 -20 21 -47 38 -62 27 -24 40 -28 92 -28 58 0 64 2 95 35 43 45 49 79 49
250 -1 124 -3 145 -23 182 -33 63 -53 73 -149 73 l-83 0 0 190 0 190 115 0
115 0 0 -110z m-964 -1090 c86 -75 188 -105 359 -104 168 0 256 26 355 104 35
27 45 30 114 30 42 0 76 -3 76 -6 0 -16 -66 -97 -103 -126 -64 -52 -90 -66
-174 -95 -68 -23 -98 -27 -235 -31 -183 -5 -270 9 -385 64 -74 35 -151 103
-186 163 l-18 31 82 0 c76 0 84 -2 115 -30z"/>
</g>
</svg>
